<?xml version="1.0" standalone="no"?>
<!DOCTYPE svg PUBLIC "-//W3C//DTD SVG 20010904//EN"
 "http://www.w3.org/TR/2001/REC-SVG-20010904/DTD/svg10.dtd">
<svg version="1.0" xmlns="http://www.w3.org/2000/svg"
 width="1024.000000pt" height="1024.000000pt" viewBox="0 0 1024.000000 1024.000000"
 preserveAspectRatio="xMidYMid meet">
<metadata>
Created by potrace 1.14, written by Peter Selinger 2001-2017
</metadata>
<g transform="translate(0.000000,1024.000000) scale(0.100000,-0.100000)"
fill="#000000" stroke="none">
<path d="M4620 10221 c0 -8 -7 -11 -20 -8 -11 3 -20 1 -20 -5 0 -5 -4 -6 -10
-3 -5 3 -10 1 -10 -5 0 -6 -4 -8 -10 -5 -5 3 -10 1 -10 -5 0 -6 -4 -8 -10 -5
-5 3 -10 -1 -10 -10 0 -9 -4 -14 -9 -11 -4 3 -25 -10 -45 -30 -20 -19 -36 -31
-36 -27 0 4 -10 -3 -21 -17 -11 -14 -18 -18 -14 -10 4 8 -4 3 -19 -12 -14 -15
-26 -32 -26 -38 0 -6 -4 -9 -9 -6 -4 3 -18 -4 -30 -17 -76 -80 -91 -96 -91
-104 0 -4 -14 -24 -30 -43 -16 -19 -34 -40 -39 -46 -6 -7 -7 -15 -4 -18 4 -3
1 -6 -5 -6 -7 0 -15 0 -19 0 -4 0 -8 13 -9 30 -1 16 3 30 9 30 5 0 4 7 -3 15
-7 8 -8 15 -3 15 5 0 9 27 9 60 0 63 -7 73 -48 64 -13 -3 -36 -7 -53 -10 -16
-3 -35 -12 -41 -20 -6 -8 -16 -14 -23 -14 -6 0 -11 -4 -11 -10 0 -6 -3 -9 -7
-8 -10 1 -44 -13 -58 -24 -5 -5 -21 -17 -34 -28 -13 -11 -27 -20 -31 -20 -4 0
-26 -18 -49 -39 -23 -22 -44 -40 -47 -40 -2 -1 -5 -4 -5 -8 -1 -5 -16 -18 -32
-30 -17 -13 -27 -23 -22 -23 4 0 -6 -14 -24 -30 -17 -17 -31 -37 -31 -45 0 -8
-4 -15 -10 -15 -5 0 -10 -3 -9 -7 2 -17 -14 -52 -21 -48 -5 3 -7 -3 -5 -12 1
-10 -2 -23 -6 -29 -5 -6 -10 -29 -12 -50 -1 -21 -5 -43 -8 -49 -4 -5 -7 -26
-8 -45 -2 -45 -6 -68 -13 -75 -3 -4 -2 -20 2 -36 5 -18 5 -31 -2 -35 -6 -4 -5
-10 3 -15 11 -7 11 -9 1 -9 -7 0 -10 -4 -7 -10 7 -11 -54 -52 -67 -44 -4 3 -8
0 -8 -6 0 -6 -4 -9 -9 -5 -5 3 -12 1 -16 -5 -3 -5 -15 -10 -26 -10 -11 0 -17
-4 -14 -10 5 -9 -23 -15 -47 -11 -5 0 -8 -4 -8 -10 0 -5 -4 -7 -10 -4 -5 3
-10 2 -10 -3 0 -5 -6 -9 -12 -10 -23 -2 -43 -7 -55 -15 -7 -5 -13 -6 -13 -3 0
3 -9 -3 -20 -14 -11 -11 -27 -20 -35 -20 -8 0 -15 -4 -15 -8 0 -5 -16 -14 -35
-22 -19 -8 -35 -18 -35 -22 0 -5 -4 -7 -9 -3 -5 3 -12 -4 -16 -15 -3 -11 -13
-20 -21 -20 -8 0 -17 -7 -21 -16 -3 -8 -11 -13 -18 -11 -6 3 -24 -14 -39 -36
-15 -23 -29 -41 -31 -39 -3 1 -5 0 -5 -3 0 -3 -8 -13 -17 -24 -18 -19 -36 -42
-63 -81 -8 -12 -27 -38 -43 -58 -15 -19 -25 -37 -22 -40 2 -3 -5 -15 -18 -27
-24 -23 -55 -70 -64 -97 -3 -10 -9 -18 -14 -18 -5 0 -9 -7 -9 -15 0 -9 -7 -18
-15 -21 -8 -4 -13 -10 -10 -14 3 -5 1 -11 -5 -15 -6 -4 -8 -11 -5 -16 4 -5 1
-9 -5 -9 -11 0 -35 -48 -31 -63 1 -5 -3 -6 -8 -2 -6 3 -19 -15 -31 -40 -11
-25 -25 -45 -31 -45 -6 0 -8 -4 -5 -9 3 -5 -4 -20 -17 -33 -12 -14 -23 -32
-25 -39 -2 -8 -8 -15 -13 -17 -5 -2 -9 -10 -9 -17 0 -8 -7 -21 -16 -29 -12
-12 -12 -16 -2 -16 10 0 10 -2 -1 -9 -7 -5 -10 -14 -7 -20 9 -14 43 -14 52 0
4 8 9 7 15 -2 5 -8 9 -9 9 -4 0 6 15 11 33 12 58 2 82 6 95 16 8 6 12 5 12 -2
0 -7 4 -9 10 -6 5 3 24 8 42 11 18 2 51 7 73 10 22 3 48 6 58 6 9 -1 17 3 17
7 0 4 18 7 40 6 22 -1 40 2 40 7 0 4 9 8 20 8 11 0 20 4 20 9 0 12 33 9 42 -4
5 -6 8 -6 8 2 0 8 18 12 50 11 32 0 48 -4 44 -10 -4 -6 -1 -9 6 -6 7 2 25 -7
40 -21 21 -21 25 -31 19 -52 -4 -17 -3 -32 4 -39 7 -7 8 -10 2 -8 -13 7 -29
-11 -33 -37 -2 -11 -13 -26 -23 -33 -11 -7 -16 -19 -13 -25 4 -7 4 -9 -1 -5
-4 4 -39 -26 -79 -67 -87 -90 -92 -96 -101 -125 -4 -13 -14 -30 -21 -38 -13
-12 -18 -34 -15 -54 0 -5 -4 -8 -10 -8 -5 0 -8 -4 -4 -9 3 -5 1 -12 -5 -16 -5
-3 -10 -16 -10 -29 0 -12 -6 -28 -12 -35 -11 -11 -10 -12 2 -6 13 8 13 7 0 -9
-8 -10 -15 -24 -16 -30 0 -6 -2 -19 -2 -28 -1 -10 -10 -18 -19 -19 -10 0 -13
-3 -6 -6 8 -3 9 -10 4 -21 -11 -21 -45 -114 -46 -124 0 -4 -8 -16 -17 -27 -9
-11 -14 -22 -11 -25 4 -3 1 -6 -6 -6 -8 0 -11 -6 -7 -16 3 -8 2 -12 -3 -9 -17
10 -23 -34 -8 -49 12 -12 22 -13 53 -3 22 6 41 14 44 17 3 3 12 6 20 6 8 1 30
5 49 8 23 5 37 3 42 -6 7 -10 9 -10 9 0 0 17 27 15 34 -3 3 -8 1 -15 -5 -15
-6 0 -7 -4 -4 -10 3 -5 1 -10 -5 -10 -6 0 -8 -4 -5 -10 3 -5 1 -10 -5 -10 -6
0 -8 -4 -5 -10 3 -5 1 -10 -4 -10 -6 0 -11 -5 -11 -10 0 -6 -5 -16 -10 -23
-41 -48 -50 -62 -50 -74 0 -7 -4 -13 -10 -13 -5 0 -9 -3 -8 -7 2 -5 -5 -17
-15 -28 -9 -11 -17 -24 -16 -28 0 -5 -10 -17 -22 -28 -12 -10 -19 -19 -15 -19
4 0 -2 -13 -13 -29 -12 -16 -21 -34 -21 -40 0 -6 -4 -11 -8 -11 -8 0 -40 -50
-40 -63 -1 -5 -11 -17 -23 -28 -12 -10 -19 -19 -14 -19 4 0 2 -7 -5 -15 -7 -8
-9 -15 -4 -15 5 0 1 -5 -8 -11 -10 -5 -24 -25 -33 -43 -9 -18 -25 -42 -35 -54
-10 -11 -16 -22 -13 -26 3 -3 -2 -8 -11 -12 -9 -3 -13 -10 -10 -15 7 -12 -21
-51 -31 -41 -5 4 -5 2 -1 -5 4 -7 -3 -22 -14 -33 -12 -12 -26 -35 -32 -51 -5
-16 -14 -29 -19 -29 -5 0 -9 -6 -9 -13 0 -7 -12 -24 -28 -38 -15 -13 -28 -29
-29 -34 -3 -20 -28 -61 -38 -63 -5 -1 -10 -5 -11 -9 -2 -20 -17 -42 -25 -37
-5 3 -6 -1 -3 -9 3 -8 -2 -20 -10 -27 -9 -7 -13 -16 -10 -21 3 -5 0 -9 -7 -9
-7 0 -10 -3 -7 -6 4 -3 -8 -19 -24 -35 -17 -16 -28 -29 -24 -29 8 0 -33 -61
-49 -72 -6 -5 -6 -8 0 -8 6 0 3 -5 -5 -10 -8 -5 -15 -13 -15 -17 0 -5 -10 -19
-22 -33 -13 -13 -23 -30 -23 -37 0 -7 -4 -13 -9 -13 -5 0 -13 -9 -16 -20 -4
-11 -11 -17 -17 -14 -7 4 -8 2 -4 -5 5 -7 -4 -27 -19 -46 -14 -19 -23 -35 -20
-35 3 0 -3 -10 -15 -22 -19 -20 -23 -32 -17 -43 1 -2 -8 -12 -21 -21 -13 -9
-21 -22 -18 -29 2 -7 -2 -16 -10 -19 -9 -3 -12 -11 -8 -17 4 -7 3 -9 -3 -6 -6
4 -19 -5 -28 -19 -11 -18 -13 -24 -4 -19 8 4 4 -2 -9 -14 -12 -12 -22 -27 -22
-33 0 -6 -8 -20 -17 -31 -13 -15 -14 -18 -3 -12 8 4 -4 -10 -26 -33 -23 -22
-39 -43 -36 -46 7 -7 -48 -86 -60 -86 -5 0 -6 -5 -3 -10 3 -6 0 -13 -9 -16 -8
-3 -13 -11 -10 -19 3 -7 -2 -15 -11 -19 -9 -3 -14 -10 -11 -15 4 -5 -5 -18
-19 -30 -15 -11 -26 -22 -26 -25 2 -21 0 -26 -11 -20 -7 4 -8 3 -4 -4 8 -14
-23 -64 -35 -56 -5 3 -6 -2 -3 -10 3 -9 1 -16 -5 -16 -6 0 -11 -7 -11 -15 0
-8 -3 -15 -7 -15 -11 0 -33 -51 -27 -61 3 -5 0 -9 -6 -9 -6 0 -8 -4 -5 -10 6
-9 -8 -14 -27 -11 -5 0 -7 -2 -7 -7 3 -19 -2 -33 -11 -27 -6 3 -7 -1 -4 -9 3
-9 1 -16 -6 -16 -6 0 -8 -4 -5 -10 3 -5 -4 -21 -17 -34 -13 -13 -24 -30 -26
-37 -2 -8 -7 -16 -11 -19 -14 -10 -53 -80 -44 -81 4 0 -2 -4 -15 -10 -13 -5
-20 -13 -17 -19 3 -5 2 -10 -4 -10 -5 0 -13 -9 -16 -20 -4 -11 -17 -31 -30
-44 -13 -13 -21 -27 -17 -31 4 -3 -1 -11 -11 -16 -9 -6 -15 -14 -12 -20 4 -5
2 -9 -2 -9 -10 0 -49 -62 -45 -72 1 -5 -6 -8 -16 -8 -14 0 -15 -2 -2 -10 13
-8 12 -10 -2 -10 -10 0 -18 -6 -18 -13 0 -7 -11 -29 -25 -50 -14 -20 -23 -37
-20 -37 3 0 -6 -11 -20 -24 -14 -13 -27 -33 -28 -44 0 -12 -4 -19 -8 -16 -4 2
-13 -11 -20 -29 -7 -17 -21 -40 -32 -49 -10 -9 -16 -22 -12 -27 3 -6 -1 -11
-9 -11 -10 0 -13 -6 -10 -15 4 -8 1 -15 -5 -15 -6 0 -10 -3 -9 -8 3 -14 -16
-47 -43 -73 -15 -15 -25 -30 -21 -34 4 -4 0 -12 -9 -18 -13 -11 -33 -46 -29
-55 1 -2 -9 -12 -21 -23 -12 -10 -19 -19 -15 -19 4 0 -2 -13 -13 -29 -12 -16
-21 -34 -21 -39 0 -6 -10 -18 -22 -27 -13 -8 -21 -16 -19 -18 8 -3 -23 -67
-32 -67 -5 0 -5 -4 -2 -10 3 -5 1 -10 -4 -10 -6 0 -10 -3 -9 -7 2 -14 -14 -43
-21 -38 -6 3 -45 -87 -46 -107 0 -3 -3 -10 -8 -14 -12 -12 -8 -26 6 -19 6 4 5
1 -3 -7 -8 -7 -15 -24 -15 -38 1 -14 -4 -28 -10 -32 -6 -5 -5 -8 3 -8 7 0 10
-4 7 -10 -3 -5 1 -20 10 -33 8 -13 12 -27 8 -30 -3 -4 -1 -7 5 -7 7 0 12 -7
12 -16 0 -8 4 -13 9 -10 5 4 11 1 13 -6 3 -8 28 -12 79 -10 96 2 109 3 109 14
0 5 5 6 10 3 6 -3 10 -2 10 4 0 6 6 8 14 5 8 -3 17 0 21 5 3 6 11 9 16 6 5 -4
9 -1 9 5 0 6 5 8 10 5 6 -3 10 0 10 7 0 11 2 10 9 0 7 -11 9 -11 14 2 4 9 10
16 14 15 4 -1 10 0 13 1 5 2 29 7 53 13 6 1 18 6 25 10 6 5 17 5 22 2 6 -3 10
-1 10 5 0 6 4 8 10 5 5 -3 10 -1 10 5 0 7 6 10 12 8 7 -3 19 1 26 9 8 7 18 11
23 8 5 -4 9 -2 9 3 0 6 17 13 37 17 21 4 44 12 52 18 12 10 13 9 7 -2 -6 -9
-1 -8 16 3 14 9 28 13 31 9 4 -3 7 -1 7 6 0 7 4 10 9 6 5 -3 15 1 23 8 13 13
66 32 81 29 4 -1 7 3 7 9 0 5 4 8 9 4 5 -3 13 0 16 6 4 5 13 8 21 5 8 -3 14
-1 14 5 0 6 4 8 9 4 5 -3 12 -1 16 5 4 6 11 8 16 5 5 -4 9 -1 9 6 0 7 3 9 7 6
3 -4 12 -2 19 4 7 5 25 12 40 15 16 3 31 10 35 15 3 6 10 11 15 10 25 -1 53
12 47 23 -4 6 2 4 12 -4 11 -9 16 -10 11 -2 -5 8 0 12 16 14 13 0 29 2 36 2 7
1 17 7 21 15 5 8 14 10 21 6 8 -5 11 -4 7 2 -6 9 33 24 68 27 6 1 13 4 16 9 3
4 16 9 29 12 12 2 31 12 41 21 11 10 19 14 19 10 0 -3 14 0 30 9 17 9 30 12
30 8 0 -4 7 2 16 13 8 10 13 13 9 7 -7 -15 11 -18 20 -3 3 5 15 10 26 10 10 0
19 5 19 11 0 5 4 8 10 4 10 -6 50 13 62 30 4 6 8 6 8 2 0 -4 10 -2 23 5 12 7
25 13 30 14 4 1 9 3 12 4 3 1 10 3 15 4 6 0 14 6 18 11 4 6 18 11 31 13 14 1
33 10 43 19 10 9 18 12 18 8 0 -5 7 0 16 11 8 10 12 12 8 4 -6 -13 15 3 64 47
7 7 18 13 23 13 5 0 9 6 9 13 0 9 14 14 42 15 23 1 44 5 47 10 3 4 15 7 26 6
11 0 25 2 30 5 6 3 19 7 30 9 11 2 25 5 31 6 7 1 20 8 30 16 16 13 17 13 9 0
-8 -13 -6 -13 8 -2 9 8 22 10 28 6 8 -4 9 -3 5 4 -7 11 7 16 42 15 6 -1 12 3
12 7 0 9 40 25 53 22 4 -1 7 3 7 10 0 6 3 8 6 5 9 -9 46 12 39 22 -4 7 7 14
45 25 3 1 11 5 18 10 7 4 16 6 19 2 3 -3 13 2 21 11 11 11 17 12 20 4 3 -8 8
-9 15 -2 7 5 21 11 32 13 11 1 23 7 26 11 3 4 16 9 27 10 12 1 22 5 22 10 0 5
6 7 14 4 8 -3 16 -2 18 3 2 5 14 11 28 14 14 2 27 5 30 6 3 2 8 2 13 1 4 0 7
4 7 9 0 6 11 10 25 10 14 0 25 4 25 9 0 11 100 52 110 46 5 -3 10 -1 12 5 2 6
14 12 26 15 45 8 62 16 56 26 -3 5 -2 9 3 8 20 -3 43 2 55 13 7 7 24 15 38 17
14 1 28 8 31 13 4 6 12 7 18 4 6 -4 11 -2 11 4 0 7 7 9 15 6 9 -3 18 1 21 9 4
8 10 13 14 10 4 -3 25 3 46 12 22 9 42 18 47 19 4 1 9 3 12 4 6 3 12 5 42 15
13 4 21 11 18 15 -3 5 4 6 15 3 12 -3 20 0 20 7 0 7 6 10 14 7 8 -3 16 -2 18
3 2 4 12 10 23 12 11 1 26 8 33 15 6 6 24 10 38 7 19 -3 24 -1 18 8 -4 7 -3 9
1 5 8 -7 11 -16 19 -57 2 -8 8 -26 13 -40 6 -14 9 -33 7 -43 -1 -10 1 -15 7
-12 8 6 10 -5 13 -62 1 -10 5 -21 9 -24 5 -3 9 -12 10 -20 2 -8 7 -20 11 -28
6 -10 5 -12 -2 -7 -7 4 -7 -5 2 -26 7 -18 11 -39 8 -47 -3 -9 0 -11 8 -6 9 6
9 3 0 -15 -9 -17 -9 -24 -1 -30 7 -4 13 -17 14 -28 1 -12 6 -22 12 -22 5 0 3
-5 -5 -10 -11 -7 -11 -10 -2 -10 7 0 11 -4 7 -9 -3 -5 -1 -12 4 -15 5 -3 7
-15 4 -26 -3 -11 -1 -20 4 -20 5 0 9 -8 10 -17 2 -48 11 -96 19 -101 5 -4 9
-20 9 -37 0 -16 5 -41 12 -54 7 -14 10 -28 7 -33 -3 -5 0 -16 7 -24 7 -9 14
-30 15 -47 1 -18 3 -32 4 -32 1 0 3 -7 5 -15 24 -108 28 -133 28 -155 1 -11 5
-23 10 -26 4 -3 9 -20 9 -37 1 -18 4 -32 9 -32 4 0 6 -11 4 -25 -1 -14 2 -25
7 -25 5 0 7 -4 4 -9 -4 -5 -2 -11 3 -13 6 -1 11 -14 13 -28 2 -14 7 -31 12
-39 6 -9 5 -12 -1 -8 -6 4 -5 -8 2 -30 7 -21 11 -46 10 -55 -2 -10 0 -18 6
-18 5 0 9 -13 9 -29 0 -17 4 -32 8 -35 5 -3 8 -15 7 -28 -1 -13 3 -32 8 -43 6
-11 12 -36 13 -55 1 -19 3 -37 4 -40 1 -3 2 -8 1 -12 0 -5 3 -8 7 -8 5 0 8
-10 7 -23 -1 -12 2 -30 7 -40 12 -23 20 -57 20 -79 -1 -10 3 -18 6 -18 7 0 13
-32 15 -82 1 -9 6 -14 11 -11 5 4 7 -3 4 -15 -4 -13 -1 -22 5 -22 7 0 5 -5 -3
-10 -11 -7 -11 -10 -2 -10 7 0 11 -4 8 -8 -3 -5 1 -21 9 -36 10 -18 10 -24 2
-19 -9 5 -9 3 0 -9 7 -8 10 -18 6 -21 -3 -4 -2 -7 4 -7 5 0 10 -6 11 -12 0 -7
2 -30 3 -51 1 -21 6 -40 11 -43 4 -3 8 -16 8 -30 0 -13 5 -24 10 -24 6 0 10
-5 10 -11 0 -5 -6 -7 -12 -4 -7 4 -6 1 2 -7 8 -7 14 -23 12 -35 -2 -13 1 -23
5 -23 5 0 10 -10 11 -22 3 -53 13 -92 25 -100 9 -6 8 -8 -3 -8 -10 0 -11 -3
-3 -11 6 -6 9 -18 6 -25 -3 -8 -1 -14 4 -14 6 0 10 -16 11 -35 1 -20 4 -40 7
-46 7 -10 17 -55 18 -76 0 -7 4 -13 9 -13 5 0 7 -4 3 -9 -3 -5 -2 -12 3 -15 5
-3 7 -19 6 -35 -1 -17 3 -31 8 -31 6 0 8 -9 5 -20 -3 -11 0 -20 6 -20 6 0 7
-3 4 -7 -4 -3 -1 -13 6 -21 10 -13 9 -14 -1 -8 -11 7 -12 4 -3 -12 6 -12 10
-25 9 -29 -1 -4 3 -18 10 -29 6 -12 8 -24 5 -28 -3 -3 0 -6 8 -6 11 0 11 -2
-1 -10 -11 -7 -11 -10 -2 -10 7 0 11 -4 7 -9 -3 -5 -1 -12 3 -15 5 -3 9 -24
10 -47 1 -24 6 -45 10 -48 4 -3 7 -17 7 -31 0 -14 4 -28 10 -32 6 -5 5 -8 -4
-8 -11 0 -11 -3 -1 -15 7 -8 9 -15 5 -15 -4 0 -1 -8 6 -17 11 -13 11 -15 1 -9
-11 6 -11 4 -3 -10 20 -38 44 -110 47 -139 1 -16 3 -31 4 -32 1 -2 4 -12 5
-23 1 -11 4 -21 5 -22 2 -3 7 -33 12 -75 1 -7 5 -13 10 -13 4 0 8 -5 8 -11 0
-5 -6 -7 -12 -3 -9 6 -9 3 0 -9 8 -9 11 -20 8 -26 -4 -5 1 -17 10 -25 10 -10
11 -16 3 -16 -8 0 -9 -3 0 -13 6 -8 8 -17 4 -20 -3 -4 0 -13 7 -22 7 -8 13
-29 15 -47 1 -18 7 -44 12 -58 6 -14 8 -31 5 -39 -2 -8 0 -11 5 -8 6 4 9 -4 7
-18 -1 -14 3 -25 9 -25 5 0 8 -3 5 -6 -3 -3 0 -27 7 -55 8 -30 9 -49 3 -49 -5
0 -2 -7 7 -16 9 -9 14 -23 11 -30 -3 -7 -1 -16 5 -20 6 -3 8 -12 5 -20 -3 -7
-1 -16 4 -19 5 -3 7 -14 5 -25 -2 -11 -1 -20 4 -20 4 0 8 -11 9 -25 3 -47 5
-55 15 -55 5 0 4 -7 -3 -15 -10 -12 -10 -15 0 -15 7 0 10 -7 6 -15 -3 -8 -1
-15 3 -15 5 0 8 -11 7 -24 -5 -42 28 -59 108 -57 39 1 73 6 76 10 7 10 156 8
166 -1 10 -10 118 -10 128 0 8 7 12 8 40 11 7 0 16 11 20 23 5 18 8 20 15 9 5
-7 14 -10 20 -7 6 4 11 3 11 -2 0 -5 19 -9 43 -10 23 -1 53 -3 67 -5 14 -2 31
1 38 7 9 7 16 6 21 -2 8 -14 53 -12 63 3 5 7 8 7 8 -1 0 -12 95 -12 106 -1 4
3 15 2 25 -3 11 -6 20 -6 23 -1 4 5 14 8 23 7 10 -2 32 0 50 5 19 4 36 3 39
-3 3 -5 14 -2 25 8 18 16 19 16 21 -2 0 -10 1 -24 1 -31 -1 -9 53 -11 221 -8
121 2 323 6 448 8 125 3 235 8 245 12 30 13 43 14 43 3 0 -7 4 -7 13 -1 16 13
138 8 165 -6 12 -6 22 -9 22 -5 0 3 6 1 13 -5 8 -6 17 -8 20 -5 10 10 69 15
63 5 -3 -5 5 -11 18 -13 19 -4 25 0 29 18 2 13 -1 32 -7 41 -7 10 -11 28 -10
40 1 13 -2 23 -7 23 -5 0 -6 6 -3 14 3 8 1 23 -4 33 -6 10 -11 34 -13 53 -2
19 -8 41 -13 49 -9 11 -8 13 2 7 11 -7 12 -4 5 10 -5 11 -9 26 -8 34 1 8 -3
20 -7 27 -5 6 -4 14 2 18 8 5 8 11 1 19 -10 12 -21 62 -25 115 -1 15 -6 32
-10 40 -7 10 -5 12 5 6 12 -8 12 -6 1 8 -8 9 -11 21 -8 26 4 5 -2 14 -11 20
-14 8 -15 10 -3 11 9 0 11 3 5 8 -6 4 -11 23 -13 42 -1 19 -3 45 -4 58 -1 12
-5 22 -8 22 -3 0 -6 10 -7 23 -2 34 -12 98 -24 140 -6 22 -8 42 -5 45 3 3 0
12 -7 20 -10 13 -9 14 3 7 12 -6 13 -5 3 6 -7 7 -13 23 -13 35 0 12 -6 25 -12
28 -10 5 -10 7 0 12 9 4 10 10 3 18 -6 7 -11 27 -13 44 -1 18 -7 32 -13 32 -5
0 -3 5 5 10 9 6 10 10 3 10 -7 0 -10 10 -7 25 2 14 1 25 -4 25 -4 0 -7 13 -6
30 1 16 -1 30 -5 30 -4 0 -7 8 -8 18 -1 25 -11 97 -13 97 -4 0 -12 43 -13 72
-1 17 -5 29 -8 27 -3 -2 -7 13 -8 34 -1 20 -3 43 -3 50 -1 6 -4 12 -8 12 -4 0
-7 7 -7 15 0 8 5 15 11 15 6 0 5 4 -2 9 -8 5 -15 26 -15 47 -1 22 -6 42 -12
46 -6 5 -5 8 3 8 10 0 9 4 -3 16 -13 13 -13 19 -3 32 9 11 9 13 1 9 -7 -5 -12
-1 -12 10 0 10 -3 36 -7 58 -4 22 -7 50 -6 63 0 12 -4 22 -10 22 -5 0 -7 4 -3
9 3 5 1 12 -3 15 -5 3 -8 15 -7 28 1 13 -3 29 -9 37 -9 12 -8 13 4 6 12 -7 13
-6 3 6 -7 9 -14 32 -15 52 -2 20 -6 37 -9 37 -3 0 -5 13 -4 30 1 16 -2 27 -6
25 -4 -3 -10 2 -13 11 -4 10 -2 13 6 8 7 -5 8 -3 3 7 -5 7 -10 29 -12 48 -2
20 -9 38 -15 42 -7 4 -5 8 3 11 11 4 12 8 2 20 -7 8 -10 18 -6 21 3 4 2 7 -3
7 -5 0 -9 20 -9 44 1 25 -2 43 -5 41 -4 -2 -8 12 -9 33 -2 20 -3 45 -4 55 -1
9 -4 17 -7 17 -3 0 -5 16 -5 35 1 19 -3 35 -8 35 -5 0 -7 11 -5 25 3 14 2 25
-2 25 -7 0 -9 7 -13 55 -1 17 -6 33 -12 37 -6 5 -4 8 5 8 13 1 12 2 -1 10 -10
6 -15 20 -14 35 2 14 -1 25 -6 25 -6 0 -7 5 -4 10 3 6 3 15 -1 22 -4 6 -9 28
-10 47 -1 20 -5 54 -9 76 -4 22 -7 48 -7 58 1 9 -5 17 -11 17 -7 0 -6 4 3 10
11 8 12 12 3 18 -7 4 -11 18 -8 30 2 12 -1 24 -6 28 -5 3 -7 14 -4 25 4 10 3
19 -2 19 -5 0 -10 16 -11 35 -4 60 -6 75 -12 75 -4 0 -7 6 -7 13 -2 20 -27
158 -32 175 -2 5 -3 8 -7 37 -3 17 -6 47 -7 68 -1 20 -5 37 -9 37 -5 0 -8 10
-8 23 0 13 -5 28 -12 35 -9 9 -9 12 1 12 11 0 11 3 0 17 -12 15 -12 16 1 8 12
-7 13 -6 3 6 -11 14 -25 95 -27 156 -1 17 -5 29 -10 25 -5 -3 -7 2 -3 11 3 9
2 19 -4 23 -6 3 -10 18 -9 32 1 15 1 29 0 32 -6 17 -11 52 -15 97 -2 28 -9 61
-15 72 -8 16 -8 21 2 21 8 0 9 3 3 8 -11 8 -14 19 -17 57 -1 14 -5 25 -9 25
-4 0 -6 8 -5 18 2 9 -2 40 -9 68 -6 28 -11 58 -9 67 1 10 -2 17 -8 17 -6 0 -8
7 -4 15 3 8 2 15 -3 15 -5 0 -8 12 -9 28 0 15 -1 29 -2 32 -5 14 -8 86 -3 93
3 4 11 3 18 -3 10 -8 15 -8 20 0 5 8 10 8 20 0 10 -8 15 -8 21 1 4 8 3 9 -4 5
-7 -4 -12 -2 -12 3 0 13 13 14 24 3 4 -4 16 -8 27 -8 10 -1 20 -2 22 -4 1 -1
17 -3 35 -5 22 -2 30 0 26 8 -5 8 -2 8 7 0 15 -15 43 -17 34 -3 -3 6 1 7 9 4
9 -3 13 -11 9 -18 -3 -6 -1 -6 8 1 15 15 33 17 24 4 -3 -6 6 -6 24 -1 16 4 31
6 33 4 3 -2 18 -5 34 -7 17 -2 35 -6 41 -10 7 -4 14 -3 18 3 4 6 12 7 18 3 17
-10 31 -12 120 -14 43 -1 77 -6 77 -12 0 -5 7 -4 15 3 12 10 15 10 15 -1 0
-11 2 -11 10 1 5 8 10 10 10 4 0 -11 26 -14 148 -16 30 -1 52 -6 52 -12 0 -6
5 -4 10 4 5 8 10 10 10 4 0 -6 37 -11 97 -13 62 -1 100 -6 105 -14 6 -9 8 -9
8 0 0 6 8 10 18 8 9 -2 17 -4 17 -5 0 -1 36 -3 80 -4 45 -1 86 -5 92 -9 6 -4
14 -1 16 5 4 10 6 9 6 -1 1 -11 4 -11 16 -1 12 10 16 9 21 -3 4 -12 11 -14 29
-7 16 6 25 5 28 -3 3 -9 7 -9 19 1 12 10 18 9 28 -3 7 -8 17 -12 24 -8 15 10
76 10 76 0 0 -5 5 -5 11 -1 6 3 15 0 20 -7 7 -11 9 -11 9 -1 0 9 5 10 18 3 13
-7 23 -6 30 1 7 7 12 8 12 2 0 -8 96 -16 217 -17 23 -1 39 -5 36 -10 -3 -5 4
-4 16 2 16 9 21 9 21 0 0 -8 4 -8 15 1 9 7 15 8 15 2 0 -8 158 -17 253 -14 9
1 17 -3 17 -7 0 -4 56 -7 125 -7 69 1 125 -3 125 -7 0 -5 4 -6 9 -3 5 4 43 7
85 8 42 2 76 6 76 10 0 5 9 8 20 8 11 0 23 7 26 15 4 8 10 13 14 10 5 -3 11 4
15 15 3 11 11 20 16 20 5 0 9 7 9 15 0 8 4 15 10 15 5 0 6 7 3 17 -5 12 -3 14
8 8 12 -8 12 -6 0 8 -7 9 -9 17 -4 17 5 0 9 11 9 24 0 14 -3 23 -8 20 -4 -3
-7 6 -6 18 2 43 -2 59 -12 53 -5 -3 -10 0 -10 8 0 8 -7 20 -15 27 -8 7 -12 16
-9 21 3 5 0 9 -5 9 -6 0 -11 6 -11 13 0 7 -10 23 -22 34 -34 30 -63 67 -60 76
1 4 -2 7 -8 7 -5 0 -10 7 -10 15 0 8 -6 15 -14 15 -7 0 -21 11 -30 25 -9 14
-32 41 -51 61 -19 19 -42 49 -52 65 -10 16 -23 29 -30 29 -8 0 -17 8 -20 18
-4 9 -13 23 -21 31 -7 8 -20 24 -29 37 -8 13 -18 22 -22 20 -4 -3 -13 9 -20
25 -7 16 -20 29 -29 29 -8 0 -13 3 -9 6 6 6 -17 35 -65 85 -16 15 -28 30 -28
32 0 3 -15 21 -32 39 -18 19 -42 46 -52 60 -11 15 -23 25 -26 23 -4 -2 -13 8
-21 22 -14 28 -65 87 -131 154 -21 20 -38 42 -38 47 0 5 -15 23 -32 40 -56 54
-68 68 -68 82 0 7 -3 11 -6 7 -8 -7 -34 17 -34 32 0 6 -5 11 -11 11 -5 0 -7 5
-4 10 3 6 -1 10 -9 10 -8 0 -18 9 -21 20 -3 11 -11 20 -16 20 -6 0 -7 5 -3 12
4 6 3 8 -4 4 -6 -3 -16 -1 -21 6 -47 57 -61 78 -61 89 0 11 -3 11 -10 -1 -9
-13 -10 -13 -10 0 0 8 -16 30 -35 47 -19 18 -35 36 -35 41 0 5 -11 19 -25 32
-14 13 -23 26 -20 28 3 3 -9 15 -25 27 -16 12 -27 25 -23 28 3 4 -1 7 -11 7
-9 0 -14 5 -11 10 3 6 -1 13 -9 16 -9 3 -16 12 -16 20 0 8 -6 14 -14 14 -8 0
-18 9 -21 20 -3 11 -11 20 -16 20 -5 0 -9 6 -9 13 0 7 -15 29 -32 49 -18 19
-62 68 -98 108 -63 71 -96 107 -180 198 -22 23 -37 42 -34 42 3 0 -8 12 -25
26 -17 14 -29 30 -25 35 3 5 -2 9 -10 9 -9 0 -16 5 -16 11 0 6 -17 28 -37 49
-21 21 -54 57 -73 80 -19 23 -43 49 -52 58 -10 9 -18 22 -18 29 0 7 -6 13 -14
13 -7 0 -19 14 -26 30 -7 17 -19 30 -26 30 -8 0 -14 5 -14 11 0 10 -21 36 -77
95 -13 13 -23 26 -23 30 0 4 -10 17 -22 29 -13 12 -37 38 -55 58 -18 21 -40
37 -48 37 -9 0 -14 4 -11 9 4 5 -9 25 -26 43 -18 19 -49 54 -68 79 -38 48 -53
67 -88 107 -38 45 -39 47 -33 63 3 9 14 15 24 13 9 -1 17 2 17 8 0 5 15 8 33
5 52 -8 61 -11 75 -29 7 -10 20 -18 28 -18 8 0 14 -4 14 -9 0 -8 22 -18 62
-27 30 -7 27 24 -8 64 -19 22 -34 47 -34 56 0 9 -7 16 -15 16 -8 0 -15 4 -15
9 0 5 -6 16 -12 23 -7 7 -20 26 -28 41 -8 16 -24 40 -37 53 -12 13 -19 24 -15
24 4 0 3 4 -3 8 -15 10 -55 70 -55 81 0 5 -7 12 -16 15 -8 3 -12 10 -9 16 3 5
1 10 -5 10 -6 0 -16 13 -21 29 -6 16 -17 32 -25 35 -7 3 -11 12 -8 20 3 8 1
17 -5 21 -6 3 -11 15 -11 26 0 10 -4 19 -9 19 -5 0 -12 17 -16 38 -5 20 -9 42
-11 47 -9 32 -16 62 -16 73 -1 6 -6 12 -11 12 -5 0 -7 7 -3 15 3 8 1 15 -4 15
-6 0 -10 5 -10 11 0 13 -41 54 -79 81 -21 15 -23 19 -10 34 12 16 12 17 -1 10
-8 -4 -6 0 4 8 11 9 23 16 28 16 4 0 8 7 8 15 0 8 5 15 11 15 5 0 7 5 4 10 -3
6 0 10 7 10 7 0 33 16 57 35 24 19 50 35 57 35 8 0 14 4 14 9 0 8 66 36 100
43 8 2 18 8 22 13 4 6 12 11 18 11 5 1 11 3 13 4 4 4 70 11 128 13 45 2 55 5
51 17 -8 21 -43 51 -53 44 -5 -3 -9 0 -9 5 0 6 -7 11 -15 11 -8 0 -15 5 -15
10 0 6 -6 10 -13 10 -8 0 -33 14 -55 30 -23 17 -49 30 -57 30 -8 0 -15 5 -15
11 0 6 -7 8 -15 5 -9 -3 -18 1 -21 9 -4 8 -10 13 -14 10 -4 -3 -10 2 -14 10
-3 8 -12 12 -21 9 -8 -3 -17 0 -20 8 -3 8 -12 15 -20 16 -8 1 -22 3 -30 4 -8
1 -15 5 -15 10 0 4 -3 7 -7 6 -5 -1 -21 4 -36 10 -16 7 -37 12 -48 12 -10 0
-19 4 -19 8 0 4 -12 9 -27 10 -15 1 -30 8 -35 15 -4 6 -8 9 -8 5 0 -4 -15 -2
-32 3 -18 5 -44 12 -58 14 -36 6 -65 13 -65 15 0 1 -14 3 -31 5 -17 1 -37 5
-44 10 -6 4 -28 9 -47 11 -19 2 -41 8 -47 13 -7 6 -16 8 -19 4 -4 -3 -7 0 -7
8 0 11 -2 11 -10 -1 -7 -11 -10 -11 -10 -2 0 7 -5 10 -10 7 -6 -4 -17 -1 -25
5 -8 7 -22 10 -30 6 -8 -3 -15 -1 -15 5 0 6 -5 7 -10 4 -6 -4 -18 -1 -27 7
-12 9 -15 9 -9 1 4 -7 2 -13 -3 -13 -6 0 -11 5 -11 11 0 6 -9 9 -20 6 -11 -3
-20 -1 -20 3 0 5 -9 11 -20 15 -11 3 -19 10 -17 15 3 11 -184 190 -199 190 -7
0 -15 7 -18 16 -3 8 -10 13 -15 10 -5 -3 -12 1 -15 10 -3 8 -10 13 -15 9 -5
-3 -13 4 -16 16 -4 11 -9 18 -12 15 -9 -9 -44 14 -38 25 4 5 3 9 -2 8 -16 -2
-53 13 -53 23 0 5 -4 6 -10 3 -5 -3 -10 -1 -10 5 0 6 -4 8 -10 5 -5 -3 -10 -2
-10 2 0 5 -9 14 -21 21 -14 9 -19 10 -14 2 4 -7 -5 -4 -20 6 -16 10 -33 19
-39 20 -29 5 -42 10 -55 22 -7 7 -20 11 -28 8 -7 -3 -16 1 -19 9 -3 7 -12 11
-20 8 -8 -3 -14 0 -14 6 0 6 -14 11 -31 11 -16 0 -28 4 -25 9 3 5 -8 8 -24 7
-17 -1 -30 2 -30 7 0 4 -4 5 -10 2 -5 -3 -10 -2 -10 3 0 5 -10 8 -22 7 -13 -1
-27 0 -33 4 -5 3 -16 6 -24 8 -8 1 -17 7 -21 13 -6 9 -9 9 -13 -1 -4 -9 -6
-10 -6 -2 -1 7 -7 10 -15 7 -8 -3 -24 -1 -35 6 -16 8 -21 8 -21 -2 0 -8 -3 -9
-8 -3 -10 14 -52 15 -52 1 0 -6 -5 -4 -10 4 -5 8 -10 13 -11 10 -6 -41 -6 -59
2 -55 8 5 11 -8 8 -31 0 -4 5 -10 11 -14 8 -5 7 -9 -3 -13 -9 -3 -26 5 -41 20
-14 14 -26 23 -26 19 0 -7 -15 4 -51 37 -10 9 -23 17 -29 17 -5 0 -10 4 -10 8
0 5 -16 14 -35 22 -19 8 -35 17 -35 22 0 4 -3 7 -7 7 -19 -3 -34 2 -29 9 3 5
-15 14 -40 20 -24 7 -44 16 -44 22 0 5 -14 10 -31 10 -16 0 -28 4 -25 8 2 4
-9 9 -25 10 -44 3 -53 6 -61 17 -5 6 -8 5 -8 -4z m2462 -2923 c5 1 7 -2 3 -8
-3 -5 5 -14 19 -20 14 -5 26 -17 26 -25 0 -9 5 -13 10 -10 6 3 10 1 10 -5 0
-6 9 -20 20 -32 11 -12 20 -29 20 -38 0 -8 9 -22 20 -30 11 -8 20 -20 20 -27
0 -7 7 -13 16 -13 8 0 13 -4 9 -9 -3 -6 8 -24 25 -41 16 -17 30 -34 30 -38 0
-4 9 -14 20 -22 11 -8 20 -20 20 -27 0 -6 9 -15 20 -18 11 -3 20 -12 20 -18 0
-11 19 -35 106 -130 19 -21 34 -40 34 -42 0 -2 15 -20 34 -39 19 -19 32 -36
30 -39 -3 -3 4 -8 15 -12 12 -3 21 -13 21 -20 0 -8 6 -12 13 -10 7 3 21 -11
32 -32 11 -21 27 -45 36 -53 8 -8 24 -28 35 -45 19 -30 41 -58 82 -102 12 -13
22 -26 22 -29 0 -6 16 -25 53 -64 15 -15 27 -34 27 -40 0 -6 4 -9 8 -6 5 3 15
-6 22 -19 7 -14 17 -25 22 -25 4 0 8 -4 8 -9 0 -4 25 -35 54 -67 30 -32 53
-60 52 -62 -2 -1 18 -26 45 -55 27 -29 49 -58 49 -65 0 -6 6 -11 13 -10 6 2
11 -2 10 -9 -2 -6 7 -15 19 -18 16 -6 18 -9 7 -16 -12 -7 -11 -9 1 -9 8 0 24
-13 35 -29 27 -37 102 -126 143 -168 18 -18 30 -33 27 -33 -7 0 34 -48 63 -73
12 -12 22 -27 22 -35 0 -9 3 -13 6 -9 7 6 34 -16 34 -28 0 -12 57 -64 64 -58
3 4 6 2 6 -3 0 -5 11 -22 25 -38 14 -16 25 -33 25 -38 0 -4 3 -7 8 -7 16 3 32
-1 30 -8 -3 -16 15 -63 28 -74 29 -24 17 -41 -26 -37 -22 2 -40 1 -40 -2 0 -9
-64 -5 -79 5 -10 6 -12 4 -7 -6 6 -10 4 -10 -6 1 -16 18 -26 21 -87 22 -25 0
-51 4 -58 10 -7 6 -14 5 -18 -2 -5 -7 -11 -8 -19 -1 -7 6 -42 11 -79 13 -37 1
-67 5 -67 9 0 9 -42 5 -59 -5 -9 -6 -12 -5 -7 2 4 7 -3 10 -21 8 -16 -2 -32 0
-38 4 -5 5 -13 9 -17 9 -4 1 -13 3 -20 5 -24 8 -93 19 -102 17 -4 -1 -14 4
-22 10 -11 9 -14 9 -14 0 0 -8 -5 -9 -19 -2 -10 6 -21 7 -25 3 -4 -3 -11 0
-16 8 -6 8 -10 10 -10 5 0 -6 -9 -11 -20 -11 -11 0 -20 3 -20 7 0 3 -15 7 -32
8 -56 4 -93 8 -98 10 -8 4 -103 13 -142 15 -21 0 -38 3 -38 7 0 3 -10 6 -22 6
-69 4 -105 9 -117 17 -11 7 -12 6 -6 -5 7 -11 6 -12 -7 -2 -8 7 -17 11 -20 8
-2 -3 -19 -1 -36 4 -23 7 -32 6 -33 -2 0 -8 -2 -8 -6 1 -2 6 -9 9 -15 6 -6 -4
-14 0 -19 7 -7 12 -9 12 -9 0 0 -11 -3 -11 -15 -1 -8 7 -15 9 -15 6 0 -4 -9
-2 -20 4 -15 8 -20 8 -20 -1 0 -8 -4 -9 -13 0 -8 6 -16 8 -20 5 -3 -3 -14 -1
-26 5 -13 8 -22 8 -26 1 -4 -6 -11 -7 -17 -4 -12 8 -68 15 -130 17 -27 1 -48
4 -48 8 0 3 -10 5 -22 6 -53 1 -137 11 -147 17 -5 4 -13 1 -17 -5 -4 -8 -9 -8
-13 -1 -4 6 -33 12 -66 13 -33 1 -65 6 -72 11 -7 5 -14 5 -18 -2 -4 -7 -12 -7
-26 0 -11 6 -24 8 -29 5 -6 -3 -10 -1 -10 5 0 7 -7 10 -15 6 -9 -3 -15 0 -15
8 0 8 -3 22 -7 32 -4 10 -2 15 3 11 6 -3 16 3 23 15 7 11 8 17 2 14 -7 -4 -8
-1 -5 8 3 9 10 16 16 16 5 0 6 5 3 10 -3 6 -1 10 5 10 7 0 10 6 7 14 -3 8 -2
16 4 18 5 2 11 20 13 40 2 20 7 41 11 48 4 6 7 61 7 121 0 97 2 111 19 120 10
5 19 7 19 3 0 -3 6 -2 13 3 6 6 48 9 92 7 148 -7 183 -7 194 0 6 4 11 1 11 -6
0 -8 3 -9 8 -3 4 6 35 10 70 10 35 -1 67 4 73 11 6 7 -10 30 -51 72 -33 33
-60 65 -60 72 0 6 -4 9 -9 6 -4 -3 -13 6 -19 19 -7 14 -16 25 -22 25 -5 0 -9
3 -8 8 3 15 -22 62 -34 62 -9 0 -8 3 2 10 8 5 10 10 5 10 -6 0 -16 14 -23 30
-8 17 -21 30 -29 30 -10 0 -14 6 -10 20 3 11 0 20 -6 20 -7 0 -5 5 3 10 10 6
11 10 3 10 -9 0 -12 21 -10 71 l2 71 53 -6 c30 -3 58 -9 64 -12 6 -4 8 -3 5 3
-7 10 94 9 112 -1 5 -4 13 -2 16 4 5 8 11 7 21 -1 11 -9 21 -9 39 -1 19 9 25
9 25 0 0 -7 7 -3 15 8 12 17 12 20 -2 32 -10 7 -12 12 -5 12 13 0 11 4 -28 49
-19 22 -72 121 -64 121 3 0 -2 7 -10 16 -9 8 -13 20 -10 26 4 6 1 14 -5 18 -7
4 -13 16 -14 28 0 12 -7 24 -15 27 -7 3 -11 9 -8 13 3 5 -3 14 -14 22 -10 7
-16 19 -13 27 3 7 -1 13 -8 13 -7 0 -9 3 -6 6 4 4 -2 19 -13 34 -11 15 -17 30
-13 34 3 3 -1 6 -11 6 -9 0 -14 5 -11 10 3 6 1 10 -6 10 -7 0 -9 3 -6 6 3 4
-6 18 -22 33 -15 14 -26 32 -24 39 3 6 0 12 -5 12 -5 0 -17 12 -27 26 -11 18
-12 24 -4 18 12 -6 12 -5 0 9 -7 9 -11 18 -7 18 3 1 9 3 14 4 4 2 17 6 30 10
12 4 22 12 22 17 0 5 5 6 10 3 6 -3 10 -2 10 2 0 5 10 10 22 10 26 2 109 32
122 43 4 5 22 -4 38 -18 17 -15 35 -26 40 -24z m-3862 -830 c1 -2 3 -21 6 -43
4 -22 11 -43 18 -47 7 -5 6 -8 -4 -8 -10 0 -11 -3 -4 -8 6 -4 9 -16 7 -27 -2
-11 -5 -34 -7 -51 -1 -16 -6 -35 -9 -41 -4 -7 -3 -14 3 -18 6 -4 7 -13 2 -23
-5 -9 -7 -34 -5 -55 2 -21 0 -36 -4 -34 -5 3 -9 -20 -11 -51 -3 -84 -4 -86
-16 -101 -9 -12 -8 -13 2 -7 11 7 12 4 5 -10 -5 -11 -11 -36 -12 -56 -1 -34 1
-38 22 -38 13 0 29 6 36 13 11 10 12 9 5 -3 -6 -11 -2 -11 16 3 14 9 37 22 52
28 16 6 26 14 23 19 -3 4 9 13 25 20 17 7 30 16 30 21 0 5 3 8 8 7 15 -3 42
15 35 25 -3 5 -2 7 4 4 5 -4 19 2 29 12 11 9 25 16 32 13 6 -2 12 1 12 7 0 6
7 7 17 4 11 -4 14 -3 9 5 -7 11 -3 13 37 16 6 1 18 7 25 14 8 7 18 10 23 7 5
-4 9 -2 9 3 0 5 13 8 30 7 16 -1 27 2 24 6 -2 4 5 7 17 6 11 -1 25 -10 31 -20
13 -26 18 -67 7 -67 -5 0 -9 -11 -9 -25 0 -14 -3 -25 -8 -25 -4 0 -6 -35 -4
-77 4 -101 6 -120 14 -128 4 -4 4 -13 1 -21 -3 -8 -1 -14 4 -14 5 0 9 -18 8
-40 -1 -22 2 -40 6 -40 4 0 6 -13 5 -30 -1 -20 3 -30 12 -30 7 0 11 -4 8 -8
-2 -4 4 -8 14 -9 18 -2 80 58 80 76 0 6 8 14 18 20 9 5 15 11 13 13 -3 2 8 22
22 45 15 24 27 45 27 49 0 9 33 39 44 39 6 1 10 6 9 12 -1 6 6 13 17 16 16 4
21 -4 31 -52 7 -31 12 -59 11 -63 -1 -5 2 -8 6 -8 5 0 9 -6 9 -13 0 -23 36
-107 45 -107 6 0 7 -7 4 -16 -3 -8 -2 -13 3 -10 4 3 14 -6 21 -19 7 -14 17
-25 22 -25 4 0 8 -4 8 -9 0 -14 87 -100 94 -94 3 4 6 -1 6 -11 0 -9 4 -15 8
-12 8 5 30 -13 60 -49 16 -19 9 -45 -13 -45 -8 0 -15 -6 -15 -12 0 -10 -3 -9
-9 1 -6 9 -11 10 -15 2 -4 -6 -12 -9 -17 -6 -5 4 -12 -1 -15 -9 -3 -9 -14 -16
-23 -16 -9 0 -22 -5 -29 -12 -7 -7 -12 -8 -12 -3 0 4 -10 0 -22 -11 -12 -10
-18 -13 -14 -6 4 7 -8 4 -28 -8 -20 -11 -36 -17 -36 -14 0 4 -6 1 -13 -5 -8
-6 -18 -7 -22 -3 -5 4 -5 -1 -2 -11 4 -10 3 -16 -2 -12 -5 3 -15 0 -23 -7 -15
-15 -34 -21 -65 -21 -12 -1 -19 -5 -17 -9 3 -5 -8 -11 -25 -14 -19 -4 -28 -11
-24 -18 4 -7 2 -7 -7 1 -14 13 -43 6 -34 -8 5 -8 -3 -11 -22 -8 -4 0 -11 -5
-15 -13 -7 -11 -9 -11 -9 1 0 10 -3 11 -14 2 -7 -6 -22 -8 -32 -5 -11 4 -16 3
-11 -1 8 -10 -62 -37 -75 -29 -4 3 -8 2 -8 -3 0 -13 -88 -56 -99 -48 -6 3 -11
1 -11 -4 0 -6 -6 -11 -13 -11 -7 0 -30 -9 -51 -20 -22 -10 -43 -17 -47 -14 -5
3 -9 0 -9 -6 0 -6 -4 -8 -10 -5 -5 3 -10 1 -10 -5 0 -6 -4 -8 -10 -5 -5 3 -10
1 -10 -5 0 -6 -4 -8 -10 -5 -5 3 -10 1 -10 -5 0 -7 -7 -10 -15 -6 -8 3 -15 2
-15 -2 0 -4 -9 -13 -21 -20 -12 -8 -18 -9 -14 -3 9 16 -4 13 -22 -4 -8 -8 -19
-13 -24 -10 -5 4 -9 2 -9 -4 0 -5 -13 -12 -30 -16 -16 -4 -30 -12 -30 -18 0
-7 -4 -6 -10 3 -8 13 -10 13 -10 -2 0 -11 -6 -16 -20 -13 -11 2 -20 -1 -20 -6
0 -6 -4 -7 -10 -4 -5 3 -10 1 -10 -4 0 -6 -5 -11 -12 -11 -6 0 -34 -11 -62
-24 -110 -51 -131 -60 -138 -58 -5 1 -8 -3 -8 -9 0 -5 -4 -8 -9 -4 -6 3 -13 0
-18 -7 -13 -21 -73 -49 -74 -35 0 9 -2 9 -6 0 -2 -7 -11 -13 -19 -13 -9 0 -12
-5 -9 -10 4 -6 3 -10 -2 -9 -22 4 -43 -2 -57 -17 -9 -8 -16 -12 -16 -8 0 3 -7
1 -15 -6 -9 -7 -18 -10 -22 -7 -3 4 -13 1 -21 -5 -14 -12 -34 -19 -64 -21 -10
-1 -18 -5 -18 -9 0 -4 -9 -8 -19 -8 -11 0 -21 -5 -23 -12 -2 -6 -15 -13 -28
-15 -13 -2 -28 -9 -32 -16 -4 -6 -8 -8 -8 -3 0 5 -6 4 -12 -2 -7 -6 -15 -10
-18 -10 -3 -1 -18 -5 -33 -11 -16 -6 -33 -11 -38 -11 -5 0 -9 -5 -9 -11 0 -6
-7 -9 -15 -5 -8 3 -15 1 -15 -4 0 -6 -6 -10 -12 -10 -7 0 -35 -11 -62 -25 -27
-13 -52 -22 -57 -19 -5 3 -9 0 -9 -6 0 -6 -4 -8 -10 -5 -5 3 -10 2 -10 -3 0
-5 -10 -13 -22 -17 -13 -4 -25 -8 -28 -9 -3 -2 -18 -9 -35 -16 -33 -15 -40
-17 -56 -19 -5 0 -8 -5 -4 -10 3 -6 -4 -8 -15 -6 -11 2 -20 0 -20 -6 0 -5 -7
-9 -15 -9 -8 0 -15 -4 -15 -9 0 -7 -47 -21 -66 -20 -3 0 -12 -8 -20 -18 -11
-14 -13 -15 -14 -3 0 12 -4 10 -15 -4 -8 -11 -15 -16 -15 -12 0 5 -12 1 -26
-9 -15 -9 -23 -12 -20 -6 9 14 -6 15 -20 1 -6 -6 -15 -6 -24 0 -9 6 -11 13 -5
18 10 7 17 27 18 51 0 7 15 29 34 48 18 20 33 40 33 44 0 5 8 17 18 27 25 26
57 72 55 77 -2 3 6 14 17 25 11 11 20 27 20 35 0 8 4 15 8 15 5 0 19 20 31 45
12 25 27 45 32 45 6 0 7 4 4 10 -3 5 3 15 15 22 11 7 20 19 20 26 0 7 11 25
24 39 14 15 23 30 20 35 -3 4 2 8 11 8 9 0 14 4 10 9 -3 5 2 16 10 24 8 9 15
20 15 26 0 6 5 11 11 11 5 0 7 5 4 10 -3 6 1 13 9 16 9 3 16 12 16 20 0 7 7
17 16 22 9 5 15 12 15 15 -3 21 0 28 9 22 6 -3 10 1 10 10 0 15 5 23 40 64 8
10 16 24 18 32 2 7 7 16 11 19 4 3 11 12 15 20 16 34 35 63 44 69 6 3 12 13
14 21 2 8 11 21 21 28 9 7 17 20 17 28 0 8 5 14 11 14 5 0 7 4 4 10 -3 5 3 17
14 27 11 9 18 20 15 25 -3 4 -1 8 4 8 4 0 18 18 31 40 12 22 25 40 29 40 4 0
13 15 21 33 7 17 19 37 25 42 6 6 20 27 30 48 11 21 30 49 42 63 13 13 21 24
18 24 -2 0 7 18 21 40 14 22 25 44 25 50 0 6 3 9 8 7 8 -6 26 13 30 33 2 8 8
18 14 21 6 4 7 12 3 19 -5 9 -4 11 3 6 7 -4 12 -1 12 8 0 9 5 16 11 16 5 0 7
5 4 10 -3 6 -1 10 5 10 6 0 16 14 21 30 6 17 15 30 20 30 5 0 9 6 9 13 0 8 17
31 38 53 20 21 35 40 33 42 -5 5 21 62 28 62 4 0 13 16 21 35 8 19 16 35 19
35 4 0 12 14 19 30 8 17 18 28 23 24 5 -3 9 0 9 7 0 7 11 27 25 44 13 18 22
35 19 37 -2 3 6 16 18 29 13 14 31 43 42 66 20 45 70 105 80 96 3 -4 6 -1 6 5
0 10 19 18 20 10z"/>
</g>
</svg>
